<svg width="920" height="920" viewBox="0 0 243.41666 243.41667" xmlns="http://www.w3.org/2000/svg"><ellipse ry="111.12499" rx="121.33035" cy="119.13801" cx="121.70833" style="fill:#9cf;fill-opacity:1;stroke:none;stroke-width:.25801468;stroke-linecap:butt;stroke-linejoin:miter;stroke-miterlimit:4;stroke-dasharray:none;stroke-opacity:1;paint-order:markers stroke fill"/><path d="m18.898809 237.06655 3.85585-82.35713 69.395439 44.51783z" style="fill:#9cf;fill-opacity:1;stroke:none;stroke-width:.23997708;stroke-linecap:butt;stroke-linejoin:miter;stroke-miterlimit:4;stroke-dasharray:none;stroke-opacity:1;paint-order:markers stroke fill"/><path d="m89.787402 4.3157464c-5.754332-5.7543285-15.08031-5.7543285-20.834642.0L40.151342 33.127074 79.370078 72.355715 118.59868 33.127074 89.777478 4.3157464zM125.60309 40.141401 86.394335 79.37004l39.228595 39.22864 28.81133-28.821241c5.75432-5.754328 5.75432-15.070384.0-20.814793L125.62293 40.141401zm-7.00441 85.461689-39.228602-39.2088-39.228658 39.22865 28.821258 28.81132c5.754332 5.75432 15.070392 5.75432 20.8148.0l28.821202-28.81132zM33.13701 118.59868 72.345828 79.37004 33.127086 40.141401 4.3157499 68.962646c-5.7543331 5.754327-5.7543331 15.070386.0 20.814791L33.127086 118.59868z" style="stroke-width:9.92124"/><path style="fill:none;fill-opacity:1;stroke:#fff;stroke-width:7.93752;stroke-linecap:round;stroke-linejoin:round;stroke-miterlimit:4;stroke-dasharray:none;stroke-opacity:1;paint-order:normal" d="m62.706277 32.877984 33.66378-.334233"/><path style="fill:none;fill-opacity:1;stroke:#fff;stroke-width:7.93752;stroke-linecap:round;stroke-linejoin:round;stroke-miterlimit:4;stroke-dasharray:none;stroke-opacity:1;paint-order:normal" d="m79.375034 15.875002.33423 33.66376"/><path style="fill:none;fill-opacity:1;stroke:#fff;stroke-width:7.93752;stroke-linecap:round;stroke-linejoin:round;stroke-miterlimit:4;stroke-dasharray:none;stroke-opacity:1;paint-order:normal" d="M16.668754 80.502981 50.332532 80.168748"/><path style="fill:none;fill-opacity:1;stroke:#fff;stroke-width:7.93752;stroke-linecap:round;stroke-linejoin:round;stroke-miterlimit:4;stroke-dasharray:none;stroke-opacity:1;paint-order:normal" d="m115.09373 67.468751 24.04023 23.567532"/><path style="fill:none;fill-opacity:1;stroke:#fff;stroke-width:7.93752;stroke-linecap:round;stroke-linejoin:round;stroke-miterlimit:4;stroke-dasharray:none;stroke-opacity:1;paint-order:normal" d="M138.66287 67.336575 115.09532 91.376781"/><path style="fill:none;fill-opacity:1;stroke:#fff;stroke-width:7.93752;stroke-linecap:round;stroke-linejoin:round;stroke-miterlimit:4;stroke-dasharray:none;stroke-opacity:1;paint-order:normal" d="m62.706277 126.54049 33.66378-.33424"/><ellipse style="fill:#fff;fill-opacity:1;stroke:none;stroke-width:23.8126;stroke-linecap:round;stroke-linejoin:round;stroke-miterlimit:4;stroke-dasharray:none;stroke-opacity:1;paint-order:normal" cx="79.375031" cy="109.53748" rx="4.7625027" ry="4.7624998"/><ellipse style="fill:#fff;fill-opacity:1;stroke:none;stroke-width:23.8126;stroke-linecap:round;stroke-linejoin:round;stroke-miterlimit:4;stroke-dasharray:none;stroke-opacity:1;paint-order:normal" cx="79.375031" cy="142.87498" rx="4.7625027" ry="4.7624998"/><path d="m187.85416 187.85423c13.17633.0 23.73305-10.6365 23.73305-23.8125l.09-47.62503c0-13.17633-10.63622-23.812534-23.81255-23.812534-13.1763.0-23.81253 10.636204-23.81253 23.812534v47.62503c0 13.176 10.63623 23.8125 23.81253 23.8125zm42.06878-23.8125c0 23.8125-20.16123 40.4811-42.06878 40.4811-21.90753.0-42.06876-16.6686-42.06876-40.4811h-13.49373c0 27.0669 21.58983 49.45053 47.62509 53.34003v26.03491h15.87483v-26.03491c26.03522-3.81 47.62508-26.19393 47.62508-53.34003z" style="stroke-width:7.93749"/></svg>