<svg version="1.0" xmlns="http://www.w3.org/2000/svg" width="700pt" height="700pt" viewBox="0 0 700 700"><g transform="translate(0.000000,700.000000) scale(0.100000,-0.100000)" fill="#000" stroke="none"><path d="M2170 6984c-30-8-75-26-1e2-41-26-15-227-207-480-459l-435-434 565-565 565-565 562 562 563 563-437 437c-464 464-486 483-601 507-70 15-135 13-202-5zm168-344c55-34 62-66 62-277v-188l197 3c194 4 199 3 233-20 63-43 70-123 15-178-25-25-27-25-233-30l-207-5v-190c0-104-1-198-3-207-1-9-14-30-28-47-47-57-137-50-175 13-16 27-19 52-19 182 0 83-3 172-6 198l-7 46h-194c-214 0-240 6-268 60-19 37-19 73 1 111 26 52 61 59 274 59h190v2e2c0 224 6 251 63 275 44 19 67 18 105-5z"/><path d="M509 5403C34 4926 30 4922 7 4786c-14-85 0-176 42-260 26-52 94-124 468-498l438-438 563 563 562 562-557 563c-307 309-563 562-568 562-6 0-207-197-446-437zm991-608c76-40 78-160 2-199-22-11-126-14-550-17l-524-4-29 33c-41 46-41 108 0 154l29 33 324 5c676 11 717 11 748-5z"/><path d="M3045 5280l-560-560 565-565 565-565 437 437c397 398 440 444 467 503 43 92 55 166 41 249-23 135-22 133-497 616-241 245-442 445-448 445-6 0-262-252-570-560zm990-114c44-19 69-66 62-119-5-34-23-56-141-177-75-76-136-140-136-144 0-3 61-65 136-138 146-142 155-154 156-198 2-69-47-120-116-120-33 0-50 12-164 119-70 65-138 130-151 145l-25 26-151-150c-148-146-152-150-194-150-36 0-49 6-77 34-29 29-34 41-34 82v47l148 149 147 149-147 143c-144 138-148 144-148 184 0 77 40 122 110 122 48 0 66-13 208-153l132-132 138 136c75 75 146 142 157 148 27 14 49 14 90-3z"/><path d="M1715 3950l-560-560 439-439c295-295 456-448 488-466 61-33 179-58 238-50 70 10 140 35 195 70 28 18 241 225 475 460l425 426-563 560c-309 307-566 559-570 559-4 0-259-252-567-560zm607 30c20-6 48-24 62-41 95-112-26-273-157-210-52 25-77 65-77 121 0 55 25 95 75 120 46 23 48 23 97 10zm521-520c61-48 51-152-18-188-26-13-99-16-546-20l-516-5-32 30c-25 22-34 39-38 74-4 38-1 50 22 77 15 17 41 36 58 41 18 5 260 10 538 10 496 1 507 1 532-19zm-509-444c41-17 74-58 82-101 25-133-141-212-233-111-28 30-33 43-33 83 0 59 25 103 71 126 42 20 70 21 113 3z"/><path d="M5270 4326c-138-29-253-92-353-193-69-70-88-97-132-187-67-135-66-123-63-1011l3-8e2 27-73c73-201 225-354 423-426 64-23 102-30 192-34 213-9 365 49 514 197 70 70 94 102 128 171 80 165 76 117 76 1005v790l-23 75c-55 174-172 325-315 404-145 81-330 113-477 82z"/><path d="M38e2 2260c0-136 52-381 114-531 142-350 444-668 792-835 108-52 297-116 397-134l67-12V374 0h230 230v374 373l87 17c134 27 256 70 398 141 164 82 292 173 420 3e2 275 272 433 608 461 983l7 92h-197-196v-42c0-74-28-230-56-313-117-350-395-621-758-740-454-149-946-32-1276 304-97 99-164 195-220 315-45 95-87 240-95 330-3 34-8 80-11 104l-5 42h-195c-189 0-194-1-194-20z"/></g></svg>