<?xml version="1.0" standalone="no"?>
<!DOCTYPE svg PUBLIC "-//W3C//DTD SVG 20010904//EN"
 "http://www.w3.org/TR/2001/REC-SVG-20010904/DTD/svg10.dtd">
<svg version="1.0" xmlns="http://www.w3.org/2000/svg"
 width="700.000000pt" height="700.000000pt" viewBox="0 0 700.000000 700.000000"
 preserveAspectRatio="xMidYMid meet">
<metadata>
Created by potrace 1.14, written by Peter Selinger 2001-2017
</metadata>
<g transform="translate(0.000000,700.000000) scale(0.100000,-0.100000)"
fill="#000000" stroke="none">
<path d="M2170 6984 c-30 -8 -75 -26 -100 -41 -26 -15 -227 -207 -480 -459
l-435 -434 565 -565 565 -565 562 562 563 563 -437 437 c-464 464 -486 483
-601 507 -70 15 -135 13 -202 -5z m168 -344 c55 -34 62 -66 62 -277 l0 -188
197 3 c194 4 199 3 233 -20 63 -43 70 -123 15 -178 -25 -25 -27 -25 -233 -30
l-207 -5 0 -190 c0 -104 -1 -198 -3 -207 -1 -9 -14 -30 -28 -47 -47 -57 -137
-50 -175 13 -16 27 -19 52 -19 182 0 83 -3 172 -6 198 l-7 46 -194 0 c-214 0
-240 6 -268 60 -19 37 -19 73 1 111 26 52 61 59 274 59 l190 0 0 200 c0 224 6
251 63 275 44 19 67 18 105 -5z"/>
<path d="M509 5403 c-475 -477 -479 -481 -502 -617 -14 -85 0 -176 42 -260 26
-52 94 -124 468 -498 l438 -438 563 563 562 562 -557 563 c-307 309 -563 562
-568 562 -6 0 -207 -197 -446 -437z m991 -608 c76 -40 78 -160 2 -199 -22 -11
-126 -14 -550 -17 l-524 -4 -29 33 c-41 46 -41 108 0 154 l29 33 324 5 c676
11 717 11 748 -5z"/>
<path d="M3045 5280 l-560 -560 565 -565 565 -565 437 437 c397 398 440 444
467 503 43 92 55 166 41 249 -23 135 -22 133 -497 616 -241 245 -442 445 -448
445 -6 0 -262 -252 -570 -560z m990 -114 c44 -19 69 -66 62 -119 -5 -34 -23
-56 -141 -177 -75 -76 -136 -140 -136 -144 0 -3 61 -65 136 -138 146 -142 155
-154 156 -198 2 -69 -47 -120 -116 -120 -33 0 -50 12 -164 119 -70 65 -138
130 -151 145 l-25 26 -151 -150 c-148 -146 -152 -150 -194 -150 -36 0 -49 6
-77 34 -29 29 -34 41 -34 82 l0 47 148 149 147 149 -147 143 c-144 138 -148
144 -148 184 0 77 40 122 110 122 48 0 66 -13 208 -153 l132 -132 138 136 c75
75 146 142 157 148 27 14 49 14 90 -3z"/>
<path d="M1715 3950 l-560 -560 439 -439 c295 -295 456 -448 488 -466 61 -33
179 -58 238 -50 70 10 140 35 195 70 28 18 241 225 475 460 l425 426 -563 560
c-309 307 -566 559 -570 559 -4 0 -259 -252 -567 -560z m607 30 c20 -6 48 -24
62 -41 95 -112 -26 -273 -157 -210 -52 25 -77 65 -77 121 0 55 25 95 75 120
46 23 48 23 97 10z m521 -520 c61 -48 51 -152 -18 -188 -26 -13 -99 -16 -546
-20 l-516 -5 -32 30 c-25 22 -34 39 -38 74 -4 38 -1 50 22 77 15 17 41 36 58
41 18 5 260 10 538 10 496 1 507 1 532 -19z m-509 -444 c41 -17 74 -58 82
-101 25 -133 -141 -212 -233 -111 -28 30 -33 43 -33 83 0 59 25 103 71 126 42
20 70 21 113 3z"/>
<path d="M5270 4326 c-138 -29 -253 -92 -353 -193 -69 -70 -88 -97 -132 -187
-67 -135 -66 -123 -63 -1011 l3 -800 27 -73 c73 -201 225 -354 423 -426 64
-23 102 -30 192 -34 213 -9 365 49 514 197 70 70 94 102 128 171 80 165 76
117 76 1005 l0 790 -23 75 c-55 174 -172 325 -315 404 -145 81 -330 113 -477
82z"/>
<path d="M3800 2260 c0 -136 52 -381 114 -531 142 -350 444 -668 792 -835 108
-52 297 -116 397 -134 l67 -12 0 -374 0 -374 230 0 230 0 0 374 0 373 87 17
c134 27 256 70 398 141 164 82 292 173 420 300 275 272 433 608 461 983 l7 92
-197 0 -196 0 0 -42 c0 -74 -28 -230 -56 -313 -117 -350 -395 -621 -758 -740
-454 -149 -946 -32 -1276 304 -97 99 -164 195 -220 315 -45 95 -87 240 -95
330 -3 34 -8 80 -11 104 l-5 42 -195 0 c-189 0 -194 -1 -194 -20z"/>
</g>
</svg>
